# xmcd
#
# Track frame offsets: 
#        150
#        32466
#        80538
#        110597
#        143360
#        172244
#        199219
#        238925
#        261305
#        278031
#        301251
#        327462
#        344833
#
# Disc length: 4633 seconds
#
# Revision: 4
# Processed by: cddbd v1.5.2PL0 Copyright (c) Steve Scherf et al.
# Submitted via: ExactAudioCopy v1.0b1
#
DISCID=c412170d
DTITLE=Ronnie Earl and The Broadcasters - Now My Soul
DYEAR=2004
DGENRE=Blues
TTITLE0=Blues For J
TTITLE1=Double Trouble
TTITLE2=Feel Like Going On
TTITLE3=Abandoned
TTITLE4=Walking On The Sea
TTITLE5=Black and White
TTITLE6=Kay My Dear
TTITLE7=Maxwell, Mudcat And Per
TTITLE8=My Buddy Buddy Friends
TTITLE9=Walter Through Kim
TTITLE10=#7
TTITLE11=The Magic Of Sam
TTITLE12=Bonus Track
EXTD=YEAR: 2004
EXTT0=
EXTT1=
EXTT2=
EXTT3=
EXTT4=
EXTT5=
EXTT6=
EXTT7=
EXTT8=
EXTT9=
EXTT10=
EXTT11=
EXTT12=
PLAYORDER=
